<?xml version="1.0" standalone="no"?>
<!DOCTYPE svg PUBLIC "-//W3C//DTD SVG 20010904//EN"
 "http://www.w3.org/TR/2001/REC-SVG-20010904/DTD/svg10.dtd">
<svg version="1.0" xmlns="http://www.w3.org/2000/svg"
 width="512.000000pt" height="512.000000pt" viewBox="0 0 512.000000 512.000000"
 preserveAspectRatio="xMidYMid meet">
<metadata>
Created by potrace 1.11, written by Peter Selinger 2001-2013
</metadata>
<g transform="translate(0.000000,512.000000) scale(0.100000,-0.100000)"
fill="#000000" stroke="none">
<path d="M2459 5103 c-18 -7 -39 -22 -46 -33 -8 -11 -20 -20 -26 -20 -7 0 -24
-12 -39 -27 -29 -30 -49 -47 -178 -151 -47 -37 -97 -79 -112 -92 -14 -14 -43
-41 -65 -61 -40 -37 -83 -65 -95 -61 -5 1 -8 -2 -8 -6 0 -13 -62 -13 -77 -1
-7 6 -17 8 -23 4 -5 -3 -10 -1 -10 4 0 6 -7 11 -15 11 -8 0 -15 5 -15 10 0 6
-6 10 -13 10 -7 0 -51 31 -98 70 -80 67 -84 69 -93 47 -4 -12 -9 -53 -11 -92
-1 -38 -3 -70 -5 -70 -1 0 -4 -61 -5 -135 -1 -74 -4 -137 -5 -140 -2 -3 -4 -9
-5 -15 -8 -40 -44 -115 -55 -115 -6 0 -9 -4 -6 -9 3 -4 -6 -19 -19 -31 -14
-13 -25 -27 -25 -32 0 -5 -12 -22 -27 -37 -41 -43 -53 -59 -53 -70 0 -6 -9
-16 -20 -23 -11 -7 -20 -17 -20 -23 0 -6 -11 -22 -25 -37 -13 -15 -26 -32 -27
-39 -2 -7 -10 -20 -18 -30 -39 -46 -45 -54 -42 -58 2 -2 -3 -8 -12 -13 -9 -5
-16 -15 -16 -22 0 -8 -13 -28 -29 -45 -16 -17 -27 -31 -24 -31 2 0 -5 -12 -16
-26 -21 -27 -18 -59 5 -50 7 3 16 1 19 -5 4 -5 10 -7 15 -4 5 3 11 1 15 -5 3
-5 14 -10 23 -10 9 0 41 -11 70 -25 29 -13 55 -24 57 -24 17 -1 134 -85 178
-128 32 -32 89 -125 102 -167 9 -28 19 -58 22 -66 3 -8 7 -31 8 -50 2 -19 6
-50 10 -68 6 -29 3 -33 -22 -43 -37 -15 -198 3 -214 24 -3 4 -16 10 -29 12
-13 2 -48 20 -77 40 -29 19 -53 33 -53 30 0 -6 -19 8 -56 42 -13 12 -24 19
-24 15 0 -4 -6 0 -13 8 -7 8 -23 21 -36 28 -20 12 -22 11 -18 -5 3 -10 11 -43
18 -73 7 -30 18 -58 23 -61 5 -4 6 -14 3 -23 -4 -9 -3 -16 1 -16 5 0 16 -25
26 -56 20 -63 91 -210 114 -236 8 -10 12 -18 9 -18 -4 0 1 -9 11 -19 31 -35
47 -55 47 -61 -1 -3 9 -16 21 -30 13 -14 34 -38 48 -55 14 -16 26 -27 26 -24
0 4 19 -11 42 -34 39 -38 42 -39 54 -21 58 81 128 152 146 146 5 -1 8 2 8 7 0
17 88 24 120 11 41 -17 104 -84 132 -140 13 -25 26 -47 31 -48 4 -2 5 -8 1
-13 -3 -5 0 -9 5 -9 6 0 10 -3 9 -7 0 -5 6 -24 14 -43 31 -74 52 -135 50 -147
-2 -7 1 -13 6 -13 5 0 9 -6 10 -12 0 -7 11 -47 22 -88 12 -41 22 -85 21 -98 0
-12 5 -22 12 -22 8 0 8 -3 1 -8 -5 -4 -10 -16 -11 -27 0 -19 -4 -34 -24 -83
-11 -28 -65 -62 -90 -56 -11 2 -27 6 -36 8 -10 3 -47 11 -83 20 -36 8 -66 20
-68 26 -2 5 -7 8 -12 5 -4 -3 -13 2 -20 10 -7 8 -16 15 -20 15 -10 0 -6 -42 5
-60 4 -7 9 -23 11 -34 2 -17 26 -92 51 -156 4 -8 7 -17 7 -20 1 -3 7 -15 14
-28 7 -12 10 -27 7 -32 -3 -6 -2 -10 4 -10 5 0 15 -16 21 -35 6 -19 16 -35 21
-35 6 0 8 -4 5 -9 -6 -8 13 -48 83 -176 15 -27 56 -92 91 -144 36 -51 72 -104
81 -117 9 -14 23 -32 32 -42 9 -9 29 -32 45 -49 31 -35 48 -43 38 -18 -3 8 -2
15 2 15 4 0 16 28 26 63 10 34 24 72 32 85 8 12 12 27 9 32 -3 6 -2 10 3 10 5
0 15 26 22 58 7 31 18 68 23 82 6 14 11 36 13 50 1 14 3 25 4 25 5 0 11 66 14
168 1 59 0 107 -4 107 -4 0 -6 20 -5 45 2 25 -1 45 -5 45 -4 0 -7 15 -7 33 0
17 -3 43 -6 57 -5 21 -30 162 -41 235 -2 11 -5 21 -6 23 -1 1 -3 10 -5 20 -1
9 -5 24 -9 33 -4 9 -6 20 -5 25 1 5 0 16 -3 24 -3 8 -13 49 -23 90 -9 41 -24
89 -32 106 -8 17 -15 41 -16 53 -1 11 -5 21 -9 21 -4 0 -8 6 -8 14 0 17 -65
157 -97 209 -13 20 -20 37 -16 37 5 0 0 5 -9 11 -10 5 -18 14 -18 20 0 5 -18
36 -40 68 -22 32 -40 64 -40 70 0 6 -4 11 -10 11 -5 0 -10 5 -10 11 0 7 -6 17
-13 23 -7 6 -26 40 -42 76 -17 36 -34 68 -38 71 -5 3 -10 12 -11 20 -2 8 -8
28 -15 44 -7 17 -15 44 -18 60 -3 17 -10 35 -14 41 -5 6 -6 14 -2 17 3 4 1 12
-4 19 -6 7 -9 28 -7 45 1 18 -2 35 -7 38 -11 7 -12 205 -1 205 4 0 8 16 9 35
5 70 7 84 14 80 3 -3 9 13 13 34 12 76 92 214 178 305 68 74 192 176 211 176
4 0 30 14 59 31 29 17 58 32 63 34 6 1 24 7 40 14 69 29 120 31 182 10 32 -12
61 -25 64 -31 3 -5 9 -9 13 -9 7 1 116 -51 131 -62 5 -4 32 -22 59 -40 73 -47
72 -47 142 -116 35 -35 62 -66 59 -69 -3 -3 4 -11 15 -19 11 -8 20 -21 20 -29
0 -8 4 -14 10 -14 5 0 18 -19 29 -42 44 -99 54 -124 55 -138 1 -8 5 -20 9 -27
4 -6 14 -58 23 -115 18 -119 13 -294 -11 -374 -8 -27 -15 -50 -15 -51 0 -2 0
-4 -1 -5 0 -2 -2 -14 -5 -27 -2 -14 -8 -29 -13 -35 -4 -6 -16 -36 -25 -66 -10
-30 -21 -57 -25 -60 -3 -3 -21 -34 -40 -69 -18 -36 -42 -73 -52 -84 -10 -12
-21 -29 -25 -39 -3 -10 -10 -18 -15 -18 -5 0 -9 -6 -9 -14 0 -8 -7 -16 -15
-20 -8 -3 -15 -11 -15 -17 0 -7 -12 -28 -26 -47 -29 -37 -98 -192 -86 -192 4
0 2 -4 -5 -8 -7 -4 -14 -23 -15 -42 -2 -19 -6 -38 -11 -41 -11 -8 -27 -214
-28 -356 0 -68 -4 -125 -7 -127 -4 -2 -7 -55 -6 -118 1 -62 -1 -117 -5 -123
-3 -5 -7 -75 -9 -155 -3 -152 -6 -233 -25 -800 -11 -330 -6 -598 12 -610 5 -3
7 -13 6 -22 -2 -10 3 -16 14 -15 14 1 22 20 36 94 10 51 22 93 26 93 4 0 6 10
4 21 -3 12 -1 27 3 33 7 12 11 28 16 66 2 14 6 32 9 40 3 8 10 42 16 75 6 33
13 71 16 85 3 14 7 32 8 40 2 9 7 21 11 28 4 7 5 16 2 19 -3 3 -2 11 3 17 4 6
16 44 26 84 11 39 23 72 28 72 4 0 6 4 3 9 -3 5 1 21 9 37 7 15 12 31 9 36 -3
4 -1 8 5 8 5 0 12 13 16 30 4 16 11 30 15 30 5 0 7 7 4 15 -4 8 -1 15 6 15 6
0 8 5 5 10 -3 6 1 13 9 16 8 3 20 21 26 40 6 19 16 34 21 34 5 0 9 5 9 11 0 6
27 43 59 83 57 69 64 92 31 94 -70 3 -133 37 -197 105 -36 37 -55 68 -62 98
-6 24 -15 58 -19 74 -17 68 14 389 45 465 3 8 7 20 8 25 1 6 3 13 5 18 1 4 3
10 4 15 6 27 62 168 69 173 5 3 8 8 7 10 -3 8 60 139 67 139 4 0 17 20 28 45
10 24 25 47 33 50 7 3 11 9 8 14 -3 5 1 11 9 15 8 3 15 11 15 18 0 7 16 31 35
53 19 22 35 36 35 32 0 -5 7 -1 16 7 17 18 70 21 108 7 29 -12 85 -64 112
-106 10 -16 22 -34 27 -40 24 -29 74 -114 71 -118 -3 -3 2 -7 10 -10 10 -4 23
7 38 31 12 20 28 43 35 50 7 7 13 18 13 22 0 5 20 40 45 77 25 38 48 78 52 91
3 12 8 22 12 22 4 0 18 24 31 53 13 28 31 60 39 70 8 9 10 17 6 17 -4 0 -1 8
7 18 9 9 21 34 29 55 7 20 17 37 22 37 4 0 6 4 2 9 -3 5 -1 12 5 16 6 4 8 11
5 16 -4 5 -1 9 5 9 7 0 10 7 6 15 -3 8 -2 15 3 15 5 0 12 12 16 27 3 15 13 43
22 62 9 20 15 42 14 49 -1 6 3 12 10 12 6 0 9 7 5 15 -3 8 -2 15 2 15 10 0 32
82 26 92 -3 4 -12 1 -22 -7 -9 -8 -48 -39 -87 -70 -38 -31 -78 -63 -87 -71
-10 -7 -18 -11 -18 -7 0 4 -7 -3 -16 -15 -8 -12 -22 -22 -30 -22 -8 0 -14 -5
-14 -11 0 -5 -4 -7 -10 -4 -5 3 -10 3 -10 -2 0 -10 -92 -53 -114 -53 -9 0 -16
-4 -16 -10 0 -5 -7 -7 -15 -4 -8 4 -21 2 -28 -3 -10 -7 -74 -9 -123 -4 -30 3
24 298 60 326 7 6 16 20 20 32 10 31 151 172 208 208 58 38 107 64 115 64 3 0
9 4 12 10 4 5 25 18 48 29 l42 18 -34 45 c-19 24 -40 52 -49 61 -8 9 -12 19
-8 22 3 3 0 6 -6 6 -6 0 -19 14 -27 31 -9 16 -24 38 -33 48 -9 9 -33 39 -52
67 -36 51 -57 77 -77 99 -7 8 -13 17 -13 20 0 4 -13 19 -28 33 -16 15 -31 35
-35 45 -3 9 -10 17 -15 17 -13 0 -84 148 -77 160 3 5 1 11 -3 14 -5 3 -10 56
-11 118 -1 104 -18 298 -27 307 -2 2 -10 -2 -19 -9 -8 -7 -15 -9 -15 -4 0 5
-4 4 -8 -3 -15 -23 -213 -131 -233 -126 -10 3 -19 1 -19 -4 0 -5 -7 -10 -15
-10 -8 0 -15 4 -15 9 0 4 -10 8 -23 8 -27 0 -55 20 -177 125 -51 44 -97 79
-102 77 -4 -1 -8 2 -8 7 0 5 -15 18 -32 29 -18 11 -42 27 -53 36 -72 57 -167
126 -174 126 -5 0 -12 7 -15 16 -3 8 -10 12 -16 9 -5 -3 -10 -2 -10 3 0 17
-47 19 -81 5z"/>
<path d="M2482 3849 c-23 -22 -42 -42 -42 -45 0 -2 -50 -59 -111 -127 -135
-149 -141 -157 -142 -204 0 -41 38 -133 56 -133 6 0 8 -3 4 -6 -3 -3 8 -27 24
-54 16 -26 29 -52 29 -59 0 -6 5 -11 11 -11 5 0 17 -16 24 -35 14 -33 83 -147
105 -172 6 -7 11 -16 11 -20 0 -15 78 -133 88 -133 5 0 15 16 21 35 6 19 16
35 22 35 6 0 9 2 6 6 -5 4 74 167 155 319 81 154 100 203 94 246 -4 29 -13 49
-26 58 -12 7 -21 19 -21 27 0 7 -10 20 -22 29 -13 8 -23 19 -23 24 0 5 -39 53
-86 107 -47 55 -92 109 -100 121 -21 35 -32 34 -77 -8z"/>
</g>
</svg>
